<?xml version="1.0" encoding="UTF-8"?>
<svg id="Layer_1" data-name="Layer 1" xmlns="http://www.w3.org/2000/svg" viewBox="0 0 512 512">
  <defs>
    <style>
      .cls-1 {
        fill: #8a8c8e;
      }

      .cls-2 {
        fill: #c2d35e;
      }
    </style>
  </defs>
  <path class="cls-1" d="M250.8001,7.5217c-60.5592,1.8286-117.9493,25.2238-161.7076,66.3051-100.2645,93.073-105.7285,250.2603-11.7796,350.1219,96.8609,102.9566,259.7224,103.9758,357.8715,2.2914,43.6857-45.2248,69.2539-105.8216,69.2699-169.1829l.0625-249.5165-253.7167-.0191ZM412.2404,255.5115c-.027,80.7108-63.0842,147.5932-143.3921,153.6534-7.9549.1818-15.9014.5342-23.9068-.0971-74.976-5.9095-135.3529-65.7736-141.8091-140.7283-7.7749-90.2563,64.5023-167.8556,148.2745-168.1336l160.8862-.5342-.0528,155.8397Z"/>
  <path class="cls-2" d="M350.5206,249.1953c-2.877-49.3308-44.2041-88.1084-93.7271-87.8098-49.4752.2984-90.409,39.5353-92.6225,89.0501-2.5327,56.6546,45.7624,102.6832,102.3044,97.1035,50.1932-4.9532,86.9398-48.7086,84.0451-98.3437Z"/>
</svg>